<?xml version="1.0" standalone="no"?>
<!DOCTYPE svg PUBLIC "-//W3C//DTD SVG 20010904//EN"
 "http://www.w3.org/TR/2001/REC-SVG-20010904/DTD/svg10.dtd">
<svg version="1.0" xmlns="http://www.w3.org/2000/svg"
 width="16.000000pt" height="16.000000pt" viewBox="0 0 16.000000 16.000000"
 preserveAspectRatio="xMidYMid meet">
<metadata>
Created by potrace 1.11, written by Peter Selinger 2001-2013
</metadata>
<g transform="translate(0.000000,16.000000) scale(0.006154,-0.006154)"
fill="#000000" stroke="none">
<path d="M1587 2077 c4 -6 -5 -8 -20 -5 -15 3 -24 1 -21 -3 2 -4 -5 -13 -17
-19 -17 -10 -20 -9 -14 2 3 7 -3 2 -16 -12 -12 -14 -26 -24 -31 -22 -6 1 -8
-3 -6 -10 3 -7 -1 -17 -9 -23 -23 -17 -25 -51 -26 -337 -1 -186 -5 -274 -12
-270 -6 4 -6 1 1 -9 12 -17 12 -58 0 -78 -6 -9 -5 -12 1 -8 5 4 10 -6 10 -23
0 -16 -5 -27 -10 -23 -5 3 -4 -4 2 -16 9 -16 9 -26 0 -42 -6 -13 -7 -19 -1
-15 6 4 6 -5 -1 -24 -6 -16 -15 -30 -19 -30 -4 0 -8 -7 -8 -15 0 -8 -5 -15
-12 -15 -6 0 -8 -3 -5 -7 4 -3 -7 -16 -23 -28 -16 -12 -27 -25 -24 -28 3 -3
-2 -4 -12 -3 -10 2 -25 -3 -32 -11 -10 -10 -18 -10 -34 -2 -11 6 -18 7 -15 2
4 -5 -9 -10 -28 -10 -19 0 -32 4 -30 8 3 4 -3 5 -13 2 -10 -2 -24 3 -31 11 -8
9 -19 16 -26 16 -7 0 -25 12 -40 28 -16 15 -25 21 -20 13 5 -9 -1 -8 -18 4
-30 20 -123 18 -147 -2 -8 -7 -18 -12 -21 -11 -13 6 -66 -67 -61 -84 1 -5 -2
-8 -8 -8 -5 0 -7 -7 -4 -15 4 -8 2 -15 -3 -15 -13 0 -10 -30 6 -59 8 -14 9
-21 2 -17 -20 12 -12 -10 14 -40 14 -16 25 -35 25 -42 0 -7 5 -10 10 -7 6 3
10 1 10 -5 0 -6 5 -8 10 -5 6 3 10 -1 10 -10 0 -9 5 -13 10 -10 6 3 10 3 10
-2 0 -4 18 -17 40 -27 22 -11 40 -23 40 -27 0 -5 7 -6 15 -3 8 4 15 1 15 -5 0
-6 11 -11 24 -11 14 0 28 -4 31 -10 3 -5 20 -10 36 -10 17 0 28 -4 25 -8 -3
-5 1 -9 9 -9 8 0 11 5 8 10 -4 6 -1 7 8 1 20 -13 149 -13 149 0 0 7 3 7 8 1
11 -15 32 -17 32 -2 0 7 8 13 18 14 36 2 77 15 83 25 4 6 12 7 18 4 6 -4 11
-3 11 2 0 6 13 14 28 20 16 5 41 21 57 36 15 14 33 23 39 19 6 -3 8 -3 4 1 -3
4 14 27 38 51 24 25 44 49 44 55 0 5 5 10 12 10 6 0 8 3 5 7 -4 3 2 13 13 20
11 8 18 18 15 22 -2 5 2 17 10 27 8 10 15 27 15 37 0 9 4 17 9 17 6 0 8 9 6
20 -2 11 0 20 5 20 5 0 7 9 5 20 -2 11 0 20 5 20 5 0 7 10 5 22 -3 12 0 27 6
35 9 10 8 13 -1 13 -10 0 -10 3 0 15 10 12 10 15 -1 15 -12 0 -12 2 0 9 9 6
10 11 2 15 -6 4 -9 12 -5 17 10 16 12 89 2 89 -5 0 -4 9 2 19 7 13 7 22 0 26
-5 3 -10 11 -10 16 0 6 5 7 11 3 8 -4 8 -1 1 12 -13 24 -13 75 0 68 6 -4 5 3
-1 14 -13 25 -14 35 -3 28 5 -3 9 1 9 9 0 8 -4 15 -8 15 -4 0 -7 9 -6 20 1 11
5 20 10 20 4 0 5 6 0 13 -11 18 -10 97 2 97 6 0 6 3 -1 8 -13 9 -13 64 1 74 6
5 6 8 -1 8 -6 0 -11 13 -11 30 0 18 4 27 11 23 6 -4 5 1 -3 11 -13 15 -13 19
0 27 10 6 10 9 2 9 -7 0 -13 5 -13 11 0 5 5 7 12 3 7 -5 8 -3 2 7 -5 8 -9 27
-10 44 -1 16 -6 31 -13 33 -6 2 -11 13 -11 23 0 11 -4 17 -10 14 -5 -3 -10 0
-10 9 0 8 -13 20 -30 28 -16 7 -30 17 -30 21 0 5 -4 6 -9 3 -5 -4 -11 -1 -13
6 -2 6 -18 12 -36 13 -18 1 -28 -3 -25 -8z"/>
</g>
</svg>
